<svg width="512" height="512" viewBox="0 0 512 512" fill="none" xmlns="http://www.w3.org/2000/svg">
<rect width="512" height="512" rx="20" fill="#3182F6"/>
<path d="M218.214 135.929H242.321V160.036H218.214V135.929ZM194.107 135.929H218.214V160.036H194.107V135.929ZM194.107 160.036H218.214V184.143H194.107V160.036ZM218.214 160.036H242.321V184.143H218.214V160.036ZM242.321 160.036H266.429V184.143H242.321V160.036ZM242.321 135.929H266.429V160.036H242.321V135.929ZM266.429 135.929H290.536V160.036H266.429V135.929ZM290.536 135.929H314.643V160.036H290.536V135.929ZM290.536 160.036H314.643V184.143H290.536V160.036ZM266.429 160.036H290.536V184.143H266.429V160.036ZM290.536 184.143H314.643V208.25H290.536V184.143ZM314.643 160.036H338.75V184.143H314.643V160.036ZM314.643 184.143H338.75V208.25H314.643V184.143ZM314.643 304.679H338.75V328.786H314.643V304.679ZM314.643 328.786H338.75V352.893H314.643V328.786ZM290.536 328.786H314.643V352.893H290.536V328.786ZM290.536 304.679H314.643V328.786H290.536V304.679ZM266.429 328.786H290.536V352.893H266.429V328.786ZM290.536 352.893H314.643V377H290.536V352.893ZM266.429 352.893H290.536V377H266.429V352.893ZM242.321 352.893H266.429V377H242.321V352.893ZM242.321 328.786H266.429V352.893H242.321V328.786ZM218.214 352.893H242.321V377H218.214V352.893ZM194.107 352.893H218.214V377H194.107V352.893ZM194.107 328.786H218.214V352.893H194.107V328.786ZM218.214 328.786H242.321V352.893H218.214V328.786ZM218.214 304.679H242.321V328.786H218.214V304.679ZM194.107 304.679H218.214V328.786H194.107V304.679ZM170 328.786H194.107V352.893H170V328.786ZM170 304.679H194.107V328.786H170V304.679ZM170 280.571H194.107V304.679H170V280.571ZM170 256.464H194.107V280.571H170V256.464ZM170 232.357H194.107V256.464H170V232.357ZM170 208.25H194.107V232.357H170V208.25ZM170 184.143H194.107V208.25H170V184.143ZM194.107 184.143H218.214V208.25H194.107V184.143ZM170 160.036H194.107V184.143H170V160.036ZM218.214 184.143H242.321V208.25H218.214V184.143ZM194.107 208.25H218.214V232.357H194.107V208.25ZM194.107 232.357H218.214V256.464H194.107V232.357ZM194.107 256.464H218.214V280.571H194.107V256.464ZM194.107 280.571H218.214V304.679H194.107V280.571Z" fill="white"/>
</svg>
