<?xml version="1.0" standalone="no"?>
<!DOCTYPE svg PUBLIC "-//W3C//DTD SVG 20010904//EN"
 "http://www.w3.org/TR/2001/REC-SVG-20010904/DTD/svg10.dtd">
<svg version="1.0" xmlns="http://www.w3.org/2000/svg"
 width="1024.000000pt" height="1024.000000pt" viewBox="0 0 1024.000000 1024.000000"
 preserveAspectRatio="xMidYMid meet">

<g transform="translate(0.000000,1024.000000) scale(0.100000,-0.100000)"
fill="#000000" stroke="none">
<path d="M1932 6099 c-216 -21 -395 -104 -540 -249 -115 -116 -190 -252 -235
-430 -27 -108 -30 -373 -5 -485 78 -346 321 -609 643 -696 110 -30 382 -33
495 -6 103 25 263 104 330 165 l55 49 -114 122 c-62 67 -124 124 -136 127 -15
4 -41 -7 -85 -35 -90 -58 -174 -82 -285 -82 -145 1 -240 37 -332 124 -65 61
-112 138 -144 232 -21 61 -24 88 -24 215 1 132 3 152 28 225 56 158 158 272
295 327 48 19 75 23 177 23 142 0 194 -15 291 -81 35 -24 66 -44 69 -44 8 0
265 262 265 270 0 16 -125 102 -205 140 -101 50 -215 79 -325 86 -47 3 -98 6
-115 8 -16 1 -63 -1 -103 -5z m-375 -1141 c-2 -7 0 -22 5 -33 9 -20 9 -20 -6
-1 -9 11 -16 15 -16 9 0 -5 -26 -38 -57 -73 -70 -76 -135 -110 -208 -109 l-50
2 55 7 c30 4 66 12 80 18 49 20 110 72 151 132 42 59 55 72 46 48z m61 -153
c-3 -3 -9 2 -12 12 -6 14 -5 15 5 6 7 -7 10 -15 7 -18z m-187 -342 c13 -16 12
-17 -3 -4 -10 7 -18 15 -18 17 0 8 8 3 21 -13z"/>
<path d="M7005 6066 c-105 -46 -137 -193 -57 -269 106 -101 276 -28 276 118 0
117 -115 197 -219 151z"/>
<path d="M7754 6050 c-105 -21 -216 -113 -249 -208 -9 -26 -19 -84 -22 -129
l-6 -83 -78 0 -79 0 0 -110 0 -110 80 0 80 0 0 -425 0 -425 140 0 140 0 0 425
0 425 115 0 115 0 0 110 0 110 -121 0 -121 0 7 58 c7 63 23 94 60 118 28 18
97 21 138 5 21 -8 29 -8 32 2 8 25 55 209 55 216 0 11 -129 31 -192 30 -29 -1
-72 -5 -94 -9z"/>
<path d="M6450 5775 l0 -264 -43 42 c-23 24 -65 54 -92 68 -45 22 -62 24 -175
24 -121 0 -127 -1 -193 -33 -117 -58 -210 -172 -251 -312 -23 -75 -31 -229
-17 -317 23 -151 93 -275 199 -355 164 -125 404 -116 529 19 l43 46 0 -67 0
-66 135 0 135 0 0 740 0 740 -135 0 -135 0 0 -265z m-150 -372 c105 -42 171
-191 157 -351 -16 -181 -102 -275 -252 -276 -117 -1 -190 55 -232 177 -26 77
-23 234 5 307 55 140 187 198 322 143z"/>
<path d="M3580 5964 c-111 -23 -223 -86 -309 -173 -88 -88 -141 -173 -178
-286 -21 -67 -27 -104 -31 -226 -5 -170 12 -259 75 -388 54 -111 171 -226 284
-281 201 -96 432 -94 630 6 104 52 223 172 272 274 19 41 38 87 41 103 l7 28
-143 -3 -142 -3 -29 -50 c-42 -73 -84 -112 -157 -148 -59 -29 -73 -32 -160
-32 -88 0 -102 3 -162 33 -186 92 -277 323 -224 573 28 133 117 253 225 306
50 25 67 28 156 28 82 0 109 -4 147 -22 68 -31 141 -104 174 -173 l29 -60 144
0 144 0 -7 33 c-3 17 -27 74 -52 126 -110 223 -324 352 -584 350 -47 0 -114
-7 -150 -15z"/>
<path d="M4916 5649 c-196 -26 -358 -177 -411 -384 -20 -77 -20 -252 0 -330
62 -243 260 -395 512 -395 153 0 272 48 376 151 294 293 153 865 -234 948 -74
15 -170 19 -243 10z m173 -235 c70 -20 131 -81 162 -160 18 -47 23 -79 23
-159 1 -117 -12 -168 -57 -227 -88 -115 -272 -130 -369 -31 -66 68 -83 120
-83 258 0 116 1 123 33 188 37 74 77 111 144 132 57 18 84 18 147 -1z"/>
<path d="M6930 5095 l0 -535 135 0 135 0 0 535 0 535 -135 0 -135 0 0 -535z"/>
<path d="M8050 5626 c0 -6 216 -582 317 -844 69 -181 84 -230 80 -259 -14 -81
-64 -116 -177 -119 l-74 -3 -23 -112 c-12 -62 -20 -115 -17 -118 3 -3 60 -6
127 -6 137 1 201 19 280 79 96 72 102 86 417 951 72 198 137 377 145 398 l15
38 -147 -3 -148 -3 -18 -55 c-10 -30 -63 -203 -119 -385 -56 -181 -103 -332
-105 -334 -2 -2 -5 -2 -8 1 -3 2 -57 168 -121 369 -63 200 -119 374 -124 387
-9 21 -14 22 -155 22 -80 0 -145 -2 -145 -4z"/>
<path d="M2295 5451 c-42 -25 -85 -78 -85 -105 0 -13 30 -55 76 -106 122 -137
120 -117 27 -213 -121 -124 -122 -129 -39 -205 51 -47 55 -48 94 -28 35 18
279 269 294 301 9 21 7 30 -16 62 -42 61 -290 313 -306 313 -8 0 -29 -8 -45
-19z m209 -159 c3 -5 -1 -9 -9 -9 -8 0 -12 4 -9 9 3 4 7 8 9 8 2 0 6 -4 9 -8z
m143 -174 c-3 -8 -6 -5 -6 6 -1 11 2 17 5 13 3 -3 4 -12 1 -19z"/>
</g>
</svg>
